<?xml version="1.0" standalone="no"?>
<!DOCTYPE svg PUBLIC "-//W3C//DTD SVG 20010904//EN"
 "http://www.w3.org/TR/2001/REC-SVG-20010904/DTD/svg10.dtd">
<svg version="1.0" xmlns="http://www.w3.org/2000/svg"
 width="400.000000pt" height="400.000000pt" viewBox="0 0 400.000000 400.000000"
 preserveAspectRatio="xMidYMid meet">

<g transform="translate(0.000000,400.000000) scale(0.100000,-0.100000)"
fill="#000000" stroke="none">
<path d="M2110 3538 c0 -13 14 -79 30 -148 36 -153 45 -255 28 -335 l-13 -60
-95 -8 c-52 -4 -126 -6 -164 -4 -40 3 -63 1 -55 -4 16 -10 184 -10 273 0 68 7
62 -6 70 156 3 73 -1 116 -24 225 -39 186 -41 181 27 124 32 -27 69 -58 83
-69 14 -11 87 -80 162 -154 124 -121 139 -133 154 -120 50 41 191 212 229 278
l44 75 21 -49 c28 -64 35 -153 22 -251 -6 -44 -12 -99 -14 -124 -3 -51 -8 -49
97 -32 44 7 51 10 25 11 -19 0 -52 -4 -74 -8 l-38 -9 6 46 c17 133 18 278 3
327 -18 60 -45 125 -52 125 -3 0 -19 -28 -36 -62 -38 -78 -102 -162 -187 -250
l-65 -67 -41 47 c-79 92 -384 362 -408 362 -5 0 -8 -10 -8 -22z"/>
<path d="M3188 3090 c-9 -6 -45 -17 -80 -24 -35 -8 -52 -14 -38 -15 25 -1 73
9 118 23 22 7 21 4 -12 -46 -19 -29 -60 -108 -90 -175 l-54 -123 48 -35 c56
-41 126 -74 158 -75 34 0 26 -11 -41 -60 -34 -25 -78 -69 -99 -99 l-38 -54 33
-46 c18 -25 57 -64 86 -85 l52 -40 -61 -27 c-33 -16 -72 -37 -86 -48 l-25 -20
-37 42 c-36 40 -38 45 -36 107 1 36 7 84 13 108 13 45 3 104 -24 146 -7 12
-18 54 -24 94 -6 41 -18 90 -26 110 -11 24 -12 39 -5 46 37 37 -20 120 -112
162 -60 27 -70 29 -198 29 -153 0 -182 -9 -294 -89 -97 -69 -131 -113 -160
-206 -23 -71 -26 -97 -25 -213 1 -73 4 -177 8 -231 6 -96 5 -99 -17 -114 -90
-59 -58 -210 51 -237 21 -6 28 -17 40 -65 16 -64 7 -102 -25 -108 -13 -3 -15
4 -11 42 3 25 3 56 -1 70 -6 26 -8 26 -105 26 l-98 0 20 41 c11 23 21 60 21
82 1 40 0 42 -46 59 -25 9 -77 23 -114 31 -37 7 -69 18 -71 24 -3 7 20 30 50
52 53 39 127 119 127 137 0 5 -37 28 -83 51 -45 23 -100 57 -121 75 -22 18
-62 43 -88 55 -27 13 -47 27 -43 33 8 13 64 26 169 40 83 10 134 28 180 63 19
14 17 18 -41 98 -66 91 -171 253 -180 275 -3 9 2 14 13 14 16 0 17 2 4 10 -19
12 -40 13 -40 1 0 -16 83 -151 164 -265 42 -60 76 -112 76 -116 0 -13 -51 -42
-89 -52 -20 -5 -80 -15 -134 -22 -90 -13 -147 -34 -147 -55 0 -4 25 -20 56
-35 31 -15 76 -43 101 -62 24 -19 78 -50 119 -70 l74 -36 -19 -26 c-10 -15
-28 -35 -38 -45 -20 -17 -24 -14 -167 93 -80 60 -190 145 -243 188 -195 157
-454 336 -553 383 -81 38 -105 42 -164 25 -58 -17 -86 -52 -86 -108 0 -55 115
-271 257 -483 101 -153 114 -165 167 -165 53 0 77 -23 86 -85 l7 -46 -87 -69
c-98 -78 -125 -112 -172 -220 -31 -71 -33 -81 -33 -195 0 -115 2 -123 33 -185
18 -36 49 -88 70 -116 l37 -50 23 28 c21 26 22 32 13 85 -24 126 -9 240 43
327 29 50 94 126 107 126 14 0 11 -36 -5 -50 -17 -13 -42 -86 -50 -145 -7 -50
7 -21 23 50 12 51 38 101 48 92 3 -3 -4 -34 -16 -69 -27 -82 -38 -206 -21
-239 30 -57 115 -158 156 -184 24 -15 42 -30 40 -33 -12 -11 -95 33 -133 71
-24 23 -43 37 -43 31 0 -21 78 -85 125 -103 44 -17 53 -26 83 -82 19 -35 44
-77 57 -94 12 -16 32 -50 44 -74 l23 -44 -74 6 c-121 8 -173 31 -249 107 -51
52 -75 68 -103 73 -47 8 -65 22 -87 72 -10 22 -19 34 -19 26 0 -25 41 -101 55
-101 31 0 22 -19 -28 -59 -79 -65 -347 -312 -347 -320 0 -4 -51 -59 -112 -121
-121 -122 -96 -107 37 22 l81 78 32 -45 c18 -25 48 -55 67 -66 43 -26 44 -39
4 -68 -17 -13 -28 -25 -25 -28 3 -3 23 10 44 29 29 26 46 34 64 31 19 -4 39
12 112 87 48 50 90 89 93 87 8 -9 -44 -153 -71 -195 -14 -23 -23 -42 -19 -42
20 0 113 213 113 258 0 9 12 30 27 46 15 17 -34 -29 -109 -103 l-137 -135 -42
19 c-23 11 -53 28 -66 38 -25 20 -73 89 -73 106 0 8 131 131 265 249 22 20 61
55 87 79 30 27 57 43 73 43 14 0 25 -4 25 -9 0 -23 96 -112 146 -136 47 -22
161 -44 240 -45 26 0 55 -79 57 -153 2 -83 19 -114 66 -119 29 -3 31 -14 18
-98 -4 -32 -4 -38 3 -23 9 23 18 64 19 96 1 10 9 17 20 17 16 0 24 -13 37 -60
9 -33 20 -63 25 -65 4 -3 4 7 0 22 -7 27 -6 28 43 39 28 6 63 14 77 18 23 7
27 4 38 -33 6 -22 16 -43 21 -46 14 -9 13 1 -14 85 l-25 75 33 15 c61 28 105
69 116 108 16 52 1 89 -42 100 l-32 8 2 170 c2 154 4 170 22 184 42 33 52 113
20 173 -11 20 -20 45 -20 55 0 34 -40 175 -65 230 -14 30 -25 71 -25 91 l1 36
60 -65 c167 -180 174 -189 186 -243 l13 -52 -6 55 c-6 58 9 39 -218 285 -25
27 -46 54 -46 59 0 6 -28 37 -62 69 -50 47 -66 69 -80 115 -9 31 -16 58 -14
59 7 8 188 -40 200 -53 12 -11 12 -22 1 -62 -7 -27 -20 -60 -29 -74 l-17 -26
53 -6 c29 -4 78 -7 108 -9 l55 -2 1 -60 c1 -78 1 -77 23 -66 17 9 20 5 30 -33
9 -38 16 -46 47 -56 19 -7 48 -10 62 -6 17 3 42 -3 70 -17 l42 -22 0 -130 c1
-71 3 -157 6 -190 18 -226 27 -314 46 -418 l20 -118 -46 -70 c-26 -38 -50 -67
-55 -65 -16 10 -87 233 -110 341 -5 28 -13 58 -16 68 -16 40 13 13 41 -41 17
-31 53 -97 79 -145 26 -48 49 -86 52 -83 3 3 -31 72 -76 153 -45 82 -81 155
-81 162 0 8 21 52 46 98 l46 84 -28 40 c-39 56 -50 60 -15 5 l29 -46 -47 -85
c-25 -46 -48 -85 -51 -85 -6 0 -51 318 -50 353 0 9 -4 17 -8 17 -5 0 -3 -44 5
-97 7 -54 16 -118 19 -143 14 -114 34 -229 51 -295 23 -90 83 -287 95 -312 10
-19 6 -29 -25 -69 -21 -26 -34 -50 -31 -53 4 -3 11 2 18 13 6 10 38 55 72 100
33 44 67 92 74 105 7 14 67 101 134 195 127 178 286 412 286 421 0 15 -18 1
-38 -31 -16 -24 -27 -33 -34 -26 -6 6 5 37 32 91 l41 82 -32 57 c-41 72 -70
114 -75 109 -3 -2 16 -37 41 -78 25 -40 45 -80 45 -89 0 -8 -18 -49 -40 -89
-35 -66 -38 -77 -25 -91 13 -14 10 -22 -20 -64 -22 -31 -36 -44 -39 -35 -7 19
-45 333 -48 393 l-2 49 59 32 c66 36 118 90 137 142 7 18 15 33 19 33 16 0
138 -130 176 -188 105 -158 66 -265 -255 -717 -102 -143 -202 -282 -222 -310
-21 -27 -45 -62 -55 -77 -17 -27 -17 -28 3 -28 12 0 19 6 18 15 -1 15 212 313
225 314 3 1 14 -47 23 -106 18 -109 41 -212 51 -221 13 -13 12 8 -2 68 -8 36
-25 113 -37 172 l-23 107 45 66 c25 36 47 65 51 65 3 0 2 -68 -2 -152 -5 -90
-5 -160 1 -172 6 -14 11 41 15 168 l6 188 44 66 c24 37 53 82 64 101 25 40 17
57 72 -169 22 -91 52 -199 67 -240 15 -41 37 -106 51 -144 29 -82 50 -126 62
-126 5 0 -12 53 -38 118 -66 161 -94 246 -134 413 -54 222 -54 206 -14 280 63
115 62 231 -4 327 -43 64 -108 135 -157 173 -30 23 -32 28 -22 51 15 32 59 58
100 58 34 0 34 -4 14 68 -6 21 -3 22 43 22 27 0 53 3 56 7 4 3 -18 28 -48 56
-89 80 -77 111 72 179 l68 31 -30 21 c-46 32 -145 134 -145 148 1 28 59 95
128 147 39 31 72 60 72 66 1 5 -24 14 -54 20 -49 10 -155 69 -171 96 -3 4 12
43 33 86 21 43 46 99 55 124 10 26 33 68 52 95 19 27 35 52 35 56 0 11 -22 9
-42 -2z m-662 -141 c-86 -29 -208 -103 -253 -152 -21 -23 -49 -63 -63 -89 -20
-39 -22 -49 -11 -62 8 -9 19 -16 26 -16 7 0 55 36 106 80 119 102 199 143 288
148 80 5 187 -19 240 -52 42 -27 61 -68 79 -173 l9 -51 -41 21 c-63 33 -143
30 -198 -8 -75 -53 -107 -151 -74 -228 17 -39 71 -92 109 -106 66 -25 150 -8
205 42 l23 21 -3 -149 c-3 -127 -5 -149 -18 -146 -8 2 -24 6 -35 9 -35 9 -3
-15 38 -28 44 -14 62 -46 53 -99 -7 -48 -26 -63 -85 -69 -28 -2 -51 -9 -51
-14 0 -5 15 -8 33 -6 37 3 38 -7 5 -85 -35 -80 -129 -145 -243 -166 -32 -6
-64 -11 -70 -11 -7 0 -9 26 -6 77 5 105 10 117 52 117 33 1 34 3 43 52 8 50 9
51 57 63 26 7 63 12 81 11 18 -1 54 -2 81 -1 42 1 49 4 58 27 13 36 -10 70
-64 95 -80 36 -177 19 -327 -58 -41 -21 -98 -46 -126 -56 -85 -28 -147 -75
-163 -124 -12 -33 -12 -47 -3 -67 16 -36 54 -34 124 9 54 32 88 37 88 13 0 -6
11 -8 25 -6 23 5 25 3 25 -36 0 -22 -3 -57 -6 -77 -6 -35 -8 -36 -38 -29 -35
8 -112 45 -120 58 -3 5 8 19 25 31 17 13 28 25 26 28 -3 2 -24 -9 -48 -26 -47
-35 -107 -42 -133 -15 -25 24 -20 96 9 157 21 42 22 48 6 29 -11 -12 -22 -19
-24 -15 -8 13 -56 194 -67 252 -5 29 -15 159 -20 287 -9 207 -9 241 6 292 25
89 62 157 102 189 118 94 198 132 277 132 l50 0 -59 -20z m275 -8 c71 -32 129
-108 103 -134 -3 -3 -27 5 -53 18 -64 33 -122 44 -216 45 -65 0 -90 -5 -135
-26 -64 -30 -144 -88 -217 -158 -44 -42 -54 -47 -67 -36 -14 11 -13 18 11 61
53 98 152 167 328 231 93 34 169 33 246 -1z m-1862 -78 c69 -38 352 -243 847
-615 34 -25 64 -50 68 -56 3 -5 -16 -24 -41 -42 -43 -32 -47 -33 -57 -16 -6
10 -29 42 -51 70 -22 28 -45 60 -51 71 -21 38 -177 95 -260 95 -43 0 -94 30
-94 54 0 7 -48 58 -107 112 -60 54 -141 130 -180 168 -40 38 -75 67 -78 64 -5
-5 155 -163 268 -264 l69 -62 -54 -12 c-107 -25 -178 -88 -196 -177 l-8 -37
-21 34 c-82 138 -255 433 -276 472 -20 37 -24 57 -20 90 6 52 16 63 68 82 52
20 94 12 174 -31z m1979 -282 c49 -35 75 -93 70 -158 -8 -96 -63 -145 -168
-151 -58 -4 -75 -1 -104 17 -112 70 -108 230 8 303 44 27 148 22 194 -11z
m-1619 -185 l23 -25 -38 -10 c-56 -15 -120 -59 -140 -97 l-18 -33 -32 47 -32
47 26 27 c29 32 112 67 158 67 20 1 38 -7 53 -23z m144 -47 c40 -6 99 -24 132
-40 54 -26 67 -39 128 -126 81 -116 112 -201 112 -313 0 -59 -3 -75 -14 -75
-10 0 -22 29 -37 92 -13 50 -32 110 -44 134 -20 38 -114 139 -130 139 -4 0 -5
-34 -2 -75 4 -63 2 -79 -13 -95 -23 -25 -36 -25 -63 0 -14 13 -22 33 -22 54 0
44 -11 96 -20 96 -3 0 -2 -23 4 -50 13 -67 -7 -133 -43 -138 -44 -7 -72 7 -87
43 -21 50 -17 62 11 35 14 -13 27 -21 30 -18 3 3 -18 28 -47 56 -29 28 -55 46
-57 41 -2 -6 3 -63 10 -127 18 -152 18 -304 2 -309 -20 -7 -31 36 -68 251 -28
166 -37 202 -54 215 -49 37 -30 131 34 171 79 49 125 56 238 39z m-345 -99
c41 -63 42 -90 5 -90 -16 0 -33 4 -39 8 -17 11 -34 49 -30 64 2 7 7 25 10 41
4 15 10 27 14 27 4 0 22 -23 40 -50z m1927 -84 c33 -50 12 -156 -30 -156 -12
0 -15 17 -15 90 0 73 3 90 15 90 8 0 22 -11 30 -24z m-1331 -133 c-5 -2 -28 3
-50 10 -37 13 -39 16 -42 58 l-2 44 52 -54 c29 -30 48 -56 42 -58z m468 10
c10 -49 21 -101 24 -116 l7 -28 -34 14 c-75 30 -103 127 -53 186 14 17 29 31
32 31 4 0 15 -39 24 -87z m-844 35 c16 -16 15 -28 -3 -28 -8 0 -15 2 -15 4 0
2 -3 11 -6 20 -7 19 7 21 24 4z m1786 -57 c21 -21 34 -41 29 -44 -4 -3 -27 -3
-50 -2 -47 4 -50 0 -29 -50 16 -37 13 -45 -18 -45 -19 0 -21 6 -20 60 0 41 6
65 17 78 9 10 17 24 17 30 0 21 15 13 54 -27z m-366 -43 c-8 -22 -36 -34 -50
-20 -10 10 -10 15 2 22 21 14 52 12 48 -2z m-88 -26 c0 -18 -37 -42 -55 -36
-16 6 -15 9 6 25 25 20 49 25 49 11z m160 -47 c0 -10 -10 -15 -31 -15 -27 0
-30 2 -19 15 7 8 21 15 31 15 11 0 19 -7 19 -15z m70 -6 c0 -5 -9 -9 -20 -9
-22 0 -27 16 -7 23 15 5 27 -1 27 -14z m-330 3 c0 -14 -23 -32 -42 -32 -25 0
-23 15 5 28 27 13 37 14 37 4z m170 -12 c0 -10 -41 -30 -62 -30 -6 0 -3 9 7
20 19 21 55 27 55 10z m-1120 -21 c25 -5 61 -14 81 -19 l36 -10 -29 -82 c-15
-46 -27 -90 -26 -97 2 -8 16 26 32 76 20 65 33 93 47 96 27 7 28 -13 3 -51
-13 -18 -30 -56 -39 -85 -10 -29 -26 -70 -36 -93 -23 -48 -24 -92 -5 -139 15
-35 179 -205 198 -205 7 0 7 4 -1 14 -9 11 -6 12 14 8 18 -3 25 -11 25 -28 0
-34 -30 -31 -65 6 -16 17 -34 30 -39 30 -23 -1 65 -70 88 -70 21 0 26 -7 36
-52 24 -115 23 -131 -11 -157 -22 -18 -33 -21 -42 -12 -23 23 -57 12 -74 -24
l-16 -34 -23 24 c-13 14 -30 25 -38 25 -17 0 -56 -46 -56 -67 0 -26 -19 -2
-80 100 -34 56 -66 110 -73 119 -9 13 -7 21 7 36 18 21 46 101 46 135 0 32 -9
15 -26 -49 -15 -60 -40 -98 -56 -88 -5 3 3 19 16 35 17 19 27 47 32 86 4 32
13 72 20 90 16 38 18 101 4 138 -15 39 -149 173 -187 187 -18 7 -33 16 -33 20
0 15 43 8 75 -12 19 -11 39 -19 46 -18 7 2 31 -23 52 -55 22 -32 41 -56 44
-53 7 6 -45 86 -80 124 -33 34 -62 46 -32 12 16 -18 12 -17 -41 6 -96 44 -98
61 -8 99 106 45 142 51 214 34z m863 -16 c-9 -24 -34 -42 -50 -36 -31 12 -1
52 39 53 12 0 15 -5 11 -17z m161 8 c3 -5 -10 -18 -29 -30 -37 -22 -47 -11
-18 21 17 19 38 23 47 9z m47 -61 c-7 -31 -10 -35 -38 -33 -40 3 -53 -26 -53
-116 0 -70 -20 -122 -33 -87 -4 9 -2 48 3 87 10 88 6 107 -21 83 -21 -19 -25
-18 -31 9 -2 14 17 29 81 63 47 24 88 41 92 37 4 -5 4 -24 0 -43z m-291 22 c0
-27 -32 -53 -50 -42 -12 7 -10 13 10 34 28 31 40 33 40 8z m-489 -73 c17 -27
34 -47 39 -44 14 9 70 -112 90 -196 23 -97 24 -133 8 -213 -11 -55 -12 -57
-24 -35 -8 15 -9 28 -3 33 5 6 9 17 9 25 0 14 -2 14 -10 1 -17 -28 -20 -3 -4
44 9 26 14 49 11 52 -3 3 -10 -12 -17 -33 -13 -40 -37 -74 -27 -38 3 11 13 59
22 106 19 101 12 147 -33 194 -16 17 -40 49 -54 70 -14 22 -35 49 -47 59 -24
22 -28 38 -6 30 8 -3 28 -28 46 -55z m-83 25 c14 5 26 -3 46 -28 14 -19 26
-36 26 -38 0 -2 -24 -4 -52 -4 -30 0 -67 -8 -85 -17 l-33 -17 21 52 c27 69 29
71 44 58 8 -7 23 -9 33 -6z m-402 -106 l35 -33 -63 3 c-61 3 -65 2 -108 -35
-31 -27 -42 -32 -36 -18 4 11 10 32 13 47 5 24 9 26 38 21 28 -5 33 -2 39 21
9 36 38 34 82 -6z m499 -3 c41 -24 66 -60 80 -118 11 -43 -36 -130 -82 -152
-87 -41 -163 -24 -211 47 -51 78 -27 180 54 225 52 30 107 29 159 -2z m-445
-60 c116 -60 116 -233 0 -292 -56 -29 -105 -29 -160 0 -50 26 -90 90 -90 143
0 44 39 113 80 142 39 26 125 30 170 7z m1095 -61 c28 -3 72 -1 100 5 27 5 51
8 53 7 1 -2 7 -52 12 -112 6 -60 18 -165 28 -233 l18 -125 -120 -175 -120
-175 -23 130 c-29 166 -43 337 -43 537 l0 159 23 -6 c12 -3 45 -8 72 -12z
m-602 -166 c-8 -41 -46 -78 -79 -78 -28 0 -74 21 -92 42 -9 11 -1 14 42 14 42
0 62 6 92 26 22 15 40 27 41 27 1 1 0 -14 -4 -31z m120 -78 c-2 -57 -17 -90
-39 -90 -15 0 -12 35 7 72 5 9 9 34 9 54 0 30 2 35 13 25 7 -7 11 -33 10 -61z
m-80 -60 c19 -40 21 -62 21 -210 -1 -91 -4 -182 -8 -202 -4 -24 -3 -38 4 -38
5 0 10 9 10 20 0 13 7 20 18 20 54 -1 71 -76 28 -127 -13 -16 -47 -40 -76 -53
-48 -22 -51 -26 -46 -53 5 -25 2 -30 -37 -47 -23 -11 -58 -20 -77 -20 -32 0
-37 4 -45 32 -9 31 -13 33 -61 36 -72 4 -89 24 -90 112 -1 60 -7 80 -43 150
-23 45 -67 120 -97 167 -53 82 -79 153 -56 153 20 0 72 -64 123 -150 113 -192
121 -203 130 -189 5 8 8 30 7 49 -1 30 -2 31 -5 8 -2 -16 -9 -28 -15 -28 -14
0 -3 66 13 86 21 26 51 12 73 -33 23 -47 40 -57 30 -18 -7 28 11 81 29 88 25
9 55 -13 83 -60 27 -46 28 -47 35 -23 10 37 9 168 -2 225 -19 100 -22 154 -8
171 12 14 14 14 27 -3 8 -10 24 -38 35 -63z m-488 38 c-12 -59 -31 -78 -76
-78 -34 0 -47 7 -87 45 -41 40 -44 44 -19 35 42 -15 87 -12 132 9 55 26 58 26
50 -11z m435 -300 c0 -47 -15 -67 -29 -40 -14 27 -14 45 1 60 20 20 28 14 28
-20z"/>
<path d="M2722 2692 c-34 -17 -83 -82 -63 -82 6 0 11 3 11 8 0 4 10 20 23 35
16 20 39 33 77 42 49 12 51 13 20 14 -19 1 -50 -7 -68 -17z"/>
<path d="M2392 2675 c4 -4 28 -11 53 -16 28 -5 64 -22 87 -41 23 -18 39 -26
37 -19 -10 28 -84 71 -134 77 -27 4 -47 3 -43 -1z"/>
<path d="M2352 2619 c-71 -9 -125 -48 -157 -112 -32 -64 -32 -110 0 -174 44
-88 142 -135 235 -113 53 13 122 65 144 109 58 116 -11 255 -143 290 -14 4
-50 4 -79 0z m124 -34 c72 -36 99 -81 99 -165 0 -86 -33 -141 -103 -171 -174
-76 -348 94 -264 257 48 94 167 129 268 79z"/>
<path d="M2437 2434 c-9 -10 2 -24 19 -24 8 0 14 7 14 15 0 15 -21 21 -33 9z"/>
<path d="M2630 2288 c0 -3 7 -22 15 -41 18 -43 20 -158 3 -175 -26 -26 -68 33
-68 94 0 13 -4 24 -9 24 -11 0 6 -89 21 -107 21 -26 48 -35 64 -22 27 22 14
189 -17 224 -5 5 -9 6 -9 3z"/>
<path d="M2690 2231 c0 -12 71 -59 102 -66 29 -7 118 28 118 47 0 5 -15 0 -34
-11 -49 -31 -98 -27 -139 9 -36 31 -47 36 -47 21z"/>
<path d="M2450 2189 c-52 -34 -91 -36 -144 -8 -48 25 -60 17 -15 -10 48 -30
109 -27 162 5 50 32 52 33 46 38 -2 2 -24 -10 -49 -25z"/>
<path d="M2742 2444 c4 -21 22 -23 26 -1 2 10 -3 17 -13 17 -10 0 -15 -6 -13
-16z"/>
<path d="M1543 2236 c7 -15 16 -21 21 -16 6 6 4 15 -4 25 -19 23 -29 18 -17
-9z"/>
<path d="M1448 2221 c-3 -17 -1 -31 3 -31 13 0 22 41 11 52 -6 6 -11 -1 -14
-21z"/>
<path d="M1278 2196 c-3 -14 -2 -26 3 -26 14 0 20 20 11 36 -8 14 -10 12 -14
-10z"/>
<path d="M1661 1772 c-15 -29 -24 -85 -11 -77 5 3 10 15 10 26 0 11 5 29 11
41 6 11 8 22 6 25 -3 2 -10 -4 -16 -15z"/>
<path d="M1688 1350 c24 -26 27 -46 12 -70 -7 -12 -15 -13 -40 -3 -27 10 -30
10 -20 -3 7 -8 25 -14 41 -14 23 0 30 6 35 27 8 29 -12 73 -35 81 -8 3 -5 -5
7 -18z"/>
<path d="M1550 1216 c0 -7 -9 -25 -21 -40 -23 -29 -11 -36 13 -8 21 23 32 62
19 62 -6 0 -11 -6 -11 -14z"/>
<path d="M1723 1201 c-42 -30 -70 -66 -91 -114 -23 -54 -11 -51 18 4 34 66 93
119 131 119 22 0 33 -9 54 -46 15 -25 29 -43 32 -40 7 6 -35 77 -55 94 -24 19
-45 15 -89 -17z"/>
<path d="M1725 1140 c-16 -16 -24 -30 -18 -30 5 0 18 9 28 20 10 11 26 20 37
20 10 0 18 5 18 10 0 20 -37 9 -65 -20z"/>
<path d="M1826 1553 c-11 -11 -6 -23 9 -23 8 0 15 4 15 9 0 13 -16 22 -24 14z"/>
<path d="M1397 1484 c-8 -8 1 -24 14 -24 5 0 9 7 9 15 0 15 -12 20 -23 9z"/>
<path d="M1154 1584 c-8 -31 0 -108 16 -148 17 -46 21 -25 5 34 -9 33 -13 72
-9 98 7 46 -2 58 -12 16z"/>
<path d="M2302 1484 l-53 -85 32 -40 c38 -48 52 -52 15 -5 -14 19 -26 40 -26
46 0 5 22 46 50 90 27 44 46 80 42 80 -4 0 -31 -39 -60 -86z"/>
<path d="M1289 1176 c24 -29 101 -57 101 -36 0 5 -7 10 -15 10 -9 0 -35 10
-58 21 -34 18 -39 19 -28 5z"/>
</g>
</svg>
